<svg xmlns="http://www.w3.org/2000/svg" viewBox="0 0 512 512">
  <defs>
    <linearGradient id="podiumGrad" x1="0%" y1="0%" x2="0%" y2="100%">
      <stop offset="0%" style="stop-color:#FFB366;stop-opacity:1" />
      <stop offset="100%" style="stop-color:#FF8C42;stop-opacity:1" />
    </linearGradient>
  </defs>
  
  <!-- Person Head -->
  <circle cx="256" cy="120" r="60" fill="#FFB366"/>
  
  <!-- Person Body -->
  <path d="M 256 180 Q 220 185 200 210 L 200 270 L 312 270 L 312 210 Q 292 185 256 180 Z" fill="#FF8C42"/>
  
  <!-- Arms -->
  <ellipse cx="180" cy="240" rx="25" ry="45" fill="#FFB366"/>
  <ellipse cx="332" cy="240" rx="25" ry="45" fill="#FFB366"/>
  
  <!-- Microphone -->
  <rect x="340" y="160" width="15" height="50" rx="7.5" fill="#4B5563"/>
  <circle cx="347.5" cy="155" r="12" fill="#6B7280"/>
  <line x1="347.5" y1="210" x2="347.5" y2="240" stroke="#4B5563" stroke-width="3"/>
  <rect x="332" y="240" width="31" height="8" rx="4" fill="#4B5563"/>
  
  <!-- Podium Base -->
  <path d="M 100 480 L 412 480 L 380 280 L 132 280 Z" fill="url(#podiumGrad)"/>
  
  <!-- Podium Top -->
  <path d="M 120 280 L 392 280 L 400 260 L 112 260 Z" fill="#FFB366"/>
  
  <!-- Podium Detail -->
  <rect x="230" y="320" width="52" height="120" fill="#8B4513" opacity="0.3"/>
  
  <!-- Sound Waves -->
  <path d="M 380 170 Q 400 170 410 180" fill="none" stroke="#FFA500" stroke-width="3" opacity="0.6"/>
  <path d="M 385 185 Q 410 185 425 200" fill="none" stroke="#FFA500" stroke-width="3" opacity="0.4"/>
  <path d="M 390 200 Q 420 200 440 220" fill="none" stroke="#FFA500" stroke-width="3" opacity="0.3"/>
</svg>
